Coordinates
version=1
nRows=16
nColumns=40
inDegrees=yes

Units are S.I. units (second, meters, Newtons, ...)
Angles are in degrees.

endheader
time	pelvis_tilt	pelvis_list	pelvis_rotation	pelvis_tx	pelvis_ty	pelvis_tz	hip_flexion_r	hip_adduction_r	hip_rotation_r	knee_angle_r	knee_angle_r_beta	ankle_angle_r	subtalar_angle_r	mtp_angle_r	hip_flexion_l	hip_adduction_l	hip_rotation_l	knee_angle_l	knee_angle_l_beta	ankle_angle_l	subtalar_angle_l	mtp_angle_l	lumbar_extension	lumbar_bending	lumbar_rotation	arm_flex_r	arm_add_r	arm_rot_r	elbow_flex_r	pro_sup_r	wrist_flex_r	wrist_dev_r	arm_flex_l	arm_add_l	arm_rot_l	elbow_flex_l	pro_sup_l	wrist_flex_l	wrist_dev_l
     15.62000000	     -8.12447050	     -5.25321528	     -1.07911233	      1.01502507	      0.91640017	      0.54679812	     20.11922589	      6.07327247	     -4.69083991	     27.79570518	     27.79570518	     14.68878921	     -9.92659469	      1.07485457	     12.15572239	    -15.25390825	     -5.23361441	     37.34583974	     37.34583974	     13.23982892	    -15.03995692	     -3.12953428	    -10.27857430	      4.48124813	     -1.69155825	     -5.62081449	    -13.19589245	     -2.92573323	     29.89706049	     45.68037380	      0.00000000	      0.00000000	     21.68228794	    -13.23564273	     -3.20716959	     37.05545161	     45.20288243	      0.00000000	      0.00000000
     15.64342857	     -7.95299563	     -5.34347455	     -0.44494057	      1.01382324	      0.91408240	      0.54975587	     20.17556392	      6.28368898	     -5.00539832	     28.70745742	     28.70745742	     15.49390092	    -10.50612218	      0.92468058	     15.14885727	    -15.47476591	     -2.99675296	     42.67061022	     42.67061022	     12.39840597	    -16.94007682	     -2.23390046	    -10.43323541	      4.41374082	     -1.70036059	     -2.67825184	    -13.47248133	     -3.11891099	     30.51197978	     45.70601419	      0.00000000	      0.00000000	     18.90907818	    -12.33362562	     -2.61577612	     34.31387230	     45.13095189	      0.00000000	      0.00000000
     15.66685714	     -7.70218591	     -5.59527330	      0.18337573	      1.01257185	      0.91170286	      0.55283150	     20.12543809	      6.71080374	     -5.28247881	     29.56897150	     29.56897150	     16.15578887	    -11.31555878	      0.75021056	     17.94673976	    -15.83679346	     -1.03786495	     47.56966338	     47.56966338	     11.48607702	    -18.06275143	     -1.56969901	    -10.76849014	      4.53339112	     -1.10772380	     -0.00260952	    -13.99308494	     -3.29262959	     31.42009289	     45.70622401	      0.00000000	      0.00000000	     16.05889226	    -11.20749253	     -2.18046238	     32.46938335	     45.04602487	      0.00000000	      0.00000000
     15.69028571	     -7.55107348	     -5.57884819	      0.76797340	      1.01114923	      0.90941467	      0.55558898	     20.22150867	      6.89255374	     -5.27444877	     30.51638757	     30.51638757	     17.06066858	    -12.22503016	      1.32024294	     20.92492596	    -15.42188498	      1.27625017	     52.51739151	     52.51739151	     13.84351588	    -18.21349795	      7.83158404	    -10.86271295	      4.32693523	     -1.19220166	      3.64377615	    -14.25722924	     -3.21391648	     31.39939780	     45.75573869	      0.00000000	      0.00000000	     13.52138666	    -10.46148961	     -0.47645132	     28.34776973	     44.89110241	      0.00000000	      0.00000000
     15.71371429	     -7.33058079	     -5.69698774	      1.35959026	      1.00977779	      0.90737902	      0.55819364	     20.14717335	      7.19595165	     -5.39285469	     31.26395998	     31.26395998	     17.78860731	    -12.98948110	      1.60626297	     23.42283577	    -15.21607749	      3.06364481	     56.24239729	     56.24239729	     14.41863024	    -18.64707036	     12.04649661	    -11.09635389	      4.27818159	     -1.09234530	      6.94460440	    -14.65074447	     -3.40783832	     32.46657459	     45.76967025	      0.00000000	      0.00000000	     10.42047739	     -9.78278601	      0.79709154	     26.39621184	     44.74989219	      0.00000000	      0.00000000
     15.73714286	     -7.11540915	     -5.80488167	      1.92620730	      1.00838597	      0.90580887	      0.56047646	     19.98086257	      7.47893979	     -5.49752650	     31.80869342	     31.80869342	     18.36705117	    -13.66184200	      1.83472482	     25.65299316	    -14.97859468	      4.49211722	     59.03610741	     59.03610741	     14.91776687	    -18.92312380	     15.33645307	    -11.31763573	      4.24454577	     -0.95609363	     10.33126515	    -15.04240467	     -3.60560724	     33.64962501	     45.77474207	      0.00000000	      0.00000000	      7.31960804	     -9.17091356	      2.12222172	     24.87099985	     44.56738162	      0.00000000	      0.00000000
     15.76057143	     -6.96434521	     -5.95584477	      2.49762534	      1.00686472	      0.90464694	      0.56237918	     19.78678485	      7.75698710	     -5.70525730	     32.12223684	     32.12223684	     18.73338987	    -14.20724004	      1.81596513	     27.69870682	    -14.83307987	      5.54163820	     60.80122668	     60.80122668	     14.72852196	    -19.15891264	     15.85495673	    -11.46084571	      4.25569380	     -0.56899596	     13.48105443	    -15.51468078	     -3.89194125	     35.18901772	     45.75636881	      0.00000000	      0.00000000	      4.49989475	     -8.47470365	      2.52334776	     23.60876519	     44.46187185	      0.00000000	      0.00000000
     15.78400000	     -6.79664781	     -5.92691304	      3.06667659	      1.00533744	      0.90432384	      0.56368099	     19.45020099	      7.82089362	     -5.83432710	     32.22793966	     32.22793966	     19.10486416	    -14.60204128	      2.20920976	     29.53845184	    -14.34351251	      6.39471701	     61.79028996	     61.79028996	     15.83823807	    -19.27713240	     19.48534040	    -11.61102680	      4.09939657	     -0.50958725	     16.96965558	    -15.80455611	     -4.16983749	     36.79854167	     45.74339164	      0.00000000	      0.00000000	      1.23249457	     -8.21939274	      4.52144698	     23.61552584	     44.08573940	      0.00000000	      0.00000000
     15.80742857	     -6.70869381	     -5.95451512	      3.67262282	      1.00369251	      0.90451318	      0.56453373	     19.06494583	      7.88289414	     -6.09819068	     32.03149375	     32.03149375	     19.21628965	    -14.87586546	      2.30686929	     31.19276391	    -13.99326381	      6.88671106	     61.66328059	     61.66328059	     15.94780660	    -19.37104388	     19.65387351	    -11.66477467	      4.04385763	     -0.23729126	     20.27957816	    -16.19466878	     -4.47274515	     38.62174318	     45.71369422	      0.00000000	      0.00000000	     -1.34545107	     -7.70150819	      5.07852170	     22.79158794	     43.94666182	      0.00000000	      0.00000000
     15.83085714	     -6.65992295	     -5.85012020	      4.29672589	      1.00198243	      0.90534139	      0.56478517	     18.59634026	      7.74821625	     -6.40233221	     31.61434429	     31.61434429	     19.24135388	    -15.00629114	      2.43994198	     32.60599401	    -13.43657850	      7.13598091	     60.59810422	     60.59810422	     16.21825553	    -19.41703075	     19.98419369	    -11.67663652	      3.87881820	     -0.10266428	     23.62691751	    -16.49628088	     -4.77951552	     40.72473482	     45.67280967	      0.00000000	      0.00000000	     -3.94999168	     -7.33063725	      5.81645781	     22.58948752	     43.75835405	      0.00000000	      0.00000000
     15.85428571	     -6.66176170	     -5.71335694	      4.96282879	      1.00020478	      0.90660879	      0.56449373	     18.07755873	      7.52178560	     -6.79540732	     31.00867035	     31.00867035	     19.17895152	    -14.94846144	      2.54349392	     33.79218346	    -12.77087728	      7.25482823	     58.62914722	     58.62914722	     16.37735861	    -19.41312049	     20.04399063	    -11.65552049	      3.70825711	      0.03644844	     26.96145094	    -16.79175305	     -5.04572632	     43.01087696	     45.62233737	      0.00000000	      0.00000000	     -6.48212311	     -7.04891686	      6.70373989	     22.92187713	     43.53318534	      0.00000000	      0.00000000
     15.87771429	     -6.75436107	     -5.48974691	      5.66072732	      0.99831166	      0.90805721	      0.56371035	     17.57337920	      7.14515964	     -7.26362402	     30.25213060	     30.25213060	     18.88774643	    -14.87712199	      2.11752203	     34.74103261	    -11.95458645	      7.23447637	     55.78228777	     55.78228777	     15.92437941	    -19.37536837	     18.77875419	    -11.52875680	      3.50773333	      0.54588319	     29.81180489	    -17.65970889	     -4.69467847	     45.99538244	     45.54426331	      0.00000000	      0.00000000	    -10.04010217	     -9.39024854	     20.92689591	     28.26584701	     41.47183497	      0.00000000	      0.00000000
     15.90114286	     -6.82831594	     -5.20680384	      6.35220301	      0.99649316	      0.90991476	      0.56244297	     16.92765915	      6.67332103	     -7.81074205	     29.33282522	     29.33282522	     18.78571873	    -14.51761442	      2.25080610	     35.29929560	    -10.98817499	      7.20399960	     52.20415366	     52.20415366	     15.50887291	    -19.26340686	     18.34011283	    -11.45202805	      3.23852244	      0.65601303	     33.14836802	    -17.88958120	     -5.05648407	     48.27009553	     45.49863379	      0.00000000	      0.00000000	    -11.98012240	     -9.08119181	     21.27002709	     28.33548615	     41.44650825	      0.00000000	      0.00000000
     15.92457143	     -6.98680554	     -4.83412080	      7.05860993	      0.99469297	      0.91175662	      0.56070490	     16.30285207	      6.08581976	     -8.33440136	     28.32747682	     28.32747682	     18.64870751	    -14.17934553	      2.36850816	     35.56857898	     -9.86672559	      7.17788702	     47.99110873	     47.99110873	     14.70321285	    -19.02148481	     17.84045863	    -11.27745974	      2.89373962	      0.86885478	     36.29151870	    -18.24895589	     -5.28816060	     50.31582501	     45.45398596	      0.00000000	      0.00000000	    -13.65912763	     -8.88639330	     21.57183421	     28.63177892	     41.40827327	      0.00000000	      0.00000000
     15.94800000	     -7.12008783	     -4.59982948	      7.75219350	      0.99310671	      0.91317777	      0.55878107	     15.64290231	      5.61529765	     -9.02999947	     27.32423273	     27.32423273	     18.43132541	    -13.67914945	      1.73611289	     35.37521072	     -9.06832247	      6.96767068	     43.00100705	     43.00100705	     11.53983371	    -18.74180198	     11.35506524	    -11.16870456	      2.70234313	      1.06509720	     39.05193002	    -18.76054267	     -5.14213105	     54.00127460	     45.34365044	      0.00000000	      0.00000000	    -16.11086060	     -9.53283617	     23.07518086	     32.13895846	     41.37709519	      0.00000000	      0.00000000
     15.97142857	     -7.22619323	     -4.28755988	      8.43366454	      0.99176055	      0.91463954	      0.55639494	     14.89282498	      5.09217639	     -9.61102506	     26.29004618	     26.29004618	     18.36298951	    -13.30187175	      1.82928178	     35.06035257	     -8.04899394	      7.05085266	     38.31932001	     38.31932001	     10.53283245	    -17.82230846	     11.53952433	    -10.94807138	      2.45004608	      1.17043437	     42.15337894	    -18.88332440	     -5.23778955	     55.74170701	     45.30476109	      0.00000000	      0.00000000	    -17.42658961	     -9.29029608	     23.57672115	     32.00760205	     41.33416706	      0.00000000	      0.00000000
